<?xml version="1.0" standalone="no"?>
<!DOCTYPE svg PUBLIC "-//W3C//DTD SVG 20010904//EN"
 "http://www.w3.org/TR/2001/REC-SVG-20010904/DTD/svg10.dtd">
<svg version="1.0" xmlns="http://www.w3.org/2000/svg"
 width="675.000000pt" height="166.000000pt" viewBox="0 0 675.000000 166.000000"
 preserveAspectRatio="xMidYMid meet">

<g transform="translate(0.000000,166.000000) scale(0.100000,-0.100000)"
fill="#000000" stroke="none">
<path d="M675 1591 c-206 -56 -355 -158 -464 -320 -54 -79 -106 -206 -122
-296 -24 -142 7 -390 57 -440 23 -23 61 -19 79 9 15 22 14 30 -7 98 -19 60
-23 94 -22 198 0 110 3 135 28 205 71 205 229 361 431 425 95 30 236 37 335
16 187 -39 371 -179 455 -346 56 -112 69 -168 68 -300 0 -69 -4 -136 -10 -150
-10 -23 -25 -29 -129 -54 -155 -38 -354 -107 -422 -148 -64 -39 -134 -114
-167 -178 -22 -43 -55 -175 -55 -217 0 -10 10 2 23 27 29 59 148 178 217 217
88 50 198 82 476 138 298 61 346 79 436 166 52 51 108 142 108 176 0 7 -27 -1
-67 -22 -60 -30 -256 -95 -287 -95 -7 0 -11 42 -11 132 0 108 -5 148 -23 213
-38 133 -95 228 -197 331 -103 103 -180 153 -310 197 -79 27 -106 31 -220 34
-104 2 -144 -1 -200 -16z"/>
<path d="M2430 1534 c-182 -66 -279 -232 -268 -458 7 -129 41 -211 124 -292
86 -86 144 -108 284 -108 98 -1 110 1 171 30 91 44 142 93 184 178 88 179 60
414 -64 549 -22 24 -71 59 -108 78 -62 31 -75 34 -172 36 -78 2 -118 -1 -151
-13z m271 -107 c60 -35 104 -82 131 -142 20 -44 23 -66 23 -175 0 -110 -3
-131 -24 -177 -26 -59 -93 -126 -149 -151 -53 -23 -186 -22 -232 2 -62 33
-105 73 -132 123 -72 133 -58 351 28 451 62 72 136 103 240 98 55 -2 82 -9
115 -29z"/>
<path d="M4510 1388 l0 -151 -22 20 c-43 39 -91 56 -153 56 -166 -1 -261 -128
-253 -336 4 -109 32 -181 94 -240 86 -82 227 -89 304 -17 18 17 34 30 36 30 2
0 4 -16 4 -35 0 -35 0 -35 45 -35 l45 0 0 430 0 430 -50 0 -50 0 0 -152z m-79
-181 c53 -35 80 -94 86 -187 10 -139 -27 -223 -111 -255 -80 -31 -154 2 -197
87 -41 80 -34 254 13 314 53 66 145 84 209 41z"/>
<path d="M3350 1311 c-44 -9 -90 -33 -114 -60 -27 -30 -36 -26 -36 14 0 35 0
35 -45 35 l-45 0 2 -307 3 -308 50 0 50 0 1 192 c2 223 6 252 41 294 64 76
165 78 209 6 17 -28 19 -58 22 -265 l4 -233 47 3 46 3 5 227 c5 209 7 229 26
255 51 70 154 82 206 24 l28 -31 0 -240 0 -240 50 0 51 0 -3 263 c-3 262 -3
264 -28 300 -33 49 -79 70 -156 70 -50 0 -72 -6 -109 -27 -25 -15 -52 -38 -61
-52 l-16 -24 -39 44 c-24 27 -51 47 -69 50 -63 12 -86 14 -120 7z"/>
<path d="M4979 1310 c-87 -15 -153 -65 -195 -147 -27 -54 -29 -65 -29 -173 1
-130 16 -180 76 -240 92 -91 282 -107 387 -30 35 25 104 133 92 143 -3 2 -26
7 -52 10 l-46 6 -27 -45 c-63 -108 -217 -110 -290 -4 -24 34 -48 123 -37 135
3 3 109 5 235 5 l230 0 -6 67 c-18 191 -158 304 -338 273z m159 -109 c37 -26
57 -60 67 -114 l7 -37 -176 0 c-191 0 -184 -3 -166 59 11 38 41 74 85 103 42
27 138 21 183 -11z"/>
<path d="M5690 1311 c-46 -10 -78 -27 -117 -64 l-33 -31 0 42 0 42 -45 0 -45
0 0 -310 0 -310 49 0 49 0 4 213 c3 188 5 216 23 252 44 87 173 112 238 46
l32 -31 3 -240 3 -240 50 0 49 0 0 244 c0 148 -4 256 -11 273 -31 84 -144 136
-249 114z"/>
<path d="M6302 1309 c-61 -10 -118 -37 -149 -71 -23 -24 -58 -108 -45 -108 4
-1 26 -5 49 -9 41 -8 41 -8 59 32 25 56 64 77 142 77 84 0 129 -20 147 -64 23
-55 19 -85 -11 -96 -14 -6 -82 -19 -151 -30 -198 -32 -256 -76 -256 -195 0
-65 23 -108 75 -143 38 -25 49 -27 132 -26 97 1 133 12 196 59 l35 26 6 -29
c9 -46 17 -52 71 -52 44 0 49 2 43 18 -20 47 -25 103 -25 282 0 183 -1 199
-22 240 -17 34 -34 50 -68 67 -53 25 -153 35 -228 22z m215 -379 c-4 -33 -13
-73 -22 -89 -32 -63 -104 -96 -193 -89 -47 4 -60 10 -84 37 -30 33 -34 54 -18
95 14 38 48 55 141 71 46 8 98 19 114 24 65 20 69 17 62 -49z"/>
<path d="M735 1106 c-68 -31 -112 -70 -127 -113 -9 -24 -24 -41 -50 -54 -27
-14 -38 -26 -38 -42 0 -16 -20 -38 -72 -77 l-72 -55 32 -3 c18 -2 32 -7 32
-12 0 -5 -17 -22 -37 -39 -48 -39 -40 -55 40 -82 55 -18 60 -19 115 -3 172 49
291 163 279 268 -2 22 -8 51 -12 62 -5 18 -1 23 26 33 17 6 48 11 67 11 l35 0
-5 -52 c-5 -46 -11 -57 -46 -88 l-40 -36 23 -50 c38 -83 40 -79 -74 -171 -57
-46 -105 -82 -107 -80 -2 2 3 24 11 48 l15 44 -36 -40 c-70 -80 -111 -198
-100 -292 7 -60 38 -147 64 -180 16 -22 17 -20 17 75 0 136 20 189 99 267 42
41 93 77 164 114 113 59 160 105 187 181 19 55 19 145 0 200 -54 153 -245 234
-390 166z m-73 -213 c29 -26 22 -33 -33 -33 -28 0 -59 -5 -71 -11 -29 -16 -30
-7 -2 29 29 37 75 43 106 15z"/>
<path d="M400 592 c0 -17 10 -37 23 -50 23 -21 84 -48 92 -40 3 2 0 20 -5 40
-8 27 -20 41 -51 57 -52 27 -59 27 -59 -7z"/>
<path d="M1635 440 c-307 -56 -537 -123 -677 -197 -71 -37 -151 -101 -169
-135 -9 -17 -4 -15 33 9 114 77 267 119 568 158 204 26 327 74 409 159 34 35
34 36 10 35 -13 -1 -91 -14 -174 -29z"/>
<path d="M440 402 c0 -82 25 -156 67 -203 20 -22 37 -38 40 -36 2 2 -6 26 -18
52 -15 34 -23 78 -27 140 -5 90 -11 105 -44 105 -15 0 -18 -9 -18 -58z"/>
<path d="M5324 411 c-39 -18 -51 -35 -69 -99 -10 -35 13 -117 40 -142 28 -26
97 -37 137 -21 35 13 76 74 53 79 -8 2 -27 -10 -41 -27 -20 -25 -34 -31 -64
-31 -57 0 -90 43 -90 117 0 47 4 59 29 84 41 40 83 39 122 -3 21 -22 33 -28
40 -21 16 16 -5 48 -45 67 -43 20 -61 20 -112 -3z"/>
<path d="M2170 413 c0 -4 22 -66 49 -138 50 -136 70 -160 89 -108 93 256 92
253 74 253 -13 0 -27 -28 -56 -110 -21 -61 -41 -108 -45 -105 -3 4 -22 52 -42
108 -24 66 -42 103 -53 105 -9 2 -16 0 -16 -5z"/>
<path d="M2450 280 c0 -118 2 -140 15 -140 13 0 15 22 15 140 0 118 -2 140
-15 140 -13 0 -15 -22 -15 -140z"/>
<path d="M2522 408 c3 -7 23 -14 46 -16 l42 -3 0 -125 c0 -117 1 -124 20 -124
18 0 20 8 22 128 l3 127 43 3 c23 2 42 7 42 13 0 5 -48 9 -111 9 -84 0 -110
-3 -107 -12z"/>
<path d="M2870 279 l0 -142 80 5 c86 5 113 19 124 64 7 26 -8 62 -32 80 -12 9
-12 12 2 23 22 19 20 67 -4 91 -16 16 -33 20 -95 20 l-75 0 0 -141z m148 99
c18 -18 14 -56 -7 -68 -11 -5 -40 -10 -65 -10 l-46 0 0 45 0 45 53 0 c29 0 58
-5 65 -12z m10 -120 c14 -12 16 -47 3 -67 -6 -9 -32 -16 -70 -19 l-61 -4 0 50
c0 40 4 52 18 55 24 7 94 -3 110 -15z"/>
<path d="M3130 280 c0 -118 2 -140 15 -140 12 0 15 15 15 73 0 79 15 107 56
107 35 0 44 -20 44 -102 0 -63 3 -78 15 -78 12 0 15 16 15 85 0 72 -3 88 -20
105 -24 24 -57 26 -88 4 -22 -15 -22 -15 -22 35 0 39 -4 51 -15 51 -13 0 -15
-22 -15 -140z"/>
<path d="M4010 280 c0 -118 2 -140 15 -140 13 0 15 22 15 140 0 118 -2 140
-15 140 -13 0 -15 -22 -15 -140z"/>
<path d="M4210 280 l0 -140 85 0 c69 0 85 3 85 15 0 12 -14 15 -70 15 l-70 0
0 125 c0 104 -2 125 -15 125 -13 0 -15 -22 -15 -140z"/>
<path d="M5060 280 c0 -118 2 -140 15 -140 13 0 15 22 15 140 0 118 -2 140
-15 140 -13 0 -15 -22 -15 -140z"/>
<path d="M5550 280 c0 -87 4 -140 10 -140 6 0 10 28 10 63 0 80 16 111 58 115
27 3 34 -1 42 -23 6 -14 10 -55 10 -91 0 -52 3 -64 16 -64 14 0 15 13 12 91
-2 77 -6 93 -23 105 -20 15 -62 15 -97 -1 -16 -6 -18 -1 -18 39 0 25 -4 46
-10 46 -6 0 -10 -53 -10 -140z"/>
<path d="M6223 403 c-7 -3 -13 -16 -13 -29 0 -14 -7 -27 -15 -30 -8 -4 -15
-10 -15 -15 0 -5 7 -9 15 -9 12 0 15 -15 15 -78 0 -83 9 -102 47 -102 28 0 31
26 3 33 -18 5 -20 14 -20 76 0 56 3 71 15 71 19 0 20 16 1 23 -8 3 -16 19 -18
35 -2 18 -8 27 -15 25z"/>
<path d="M3371 324 c-28 -23 -31 -32 -31 -80 0 -46 4 -59 26 -81 22 -22 32
-25 72 -20 61 7 82 32 82 99 0 41 -5 54 -29 79 -37 37 -79 38 -120 3z m101
-21 c26 -23 24 -90 -4 -120 -27 -28 -48 -29 -76 -3 -27 26 -30 94 -5 122 20
22 61 23 85 1z"/>
<path d="M3577 343 c-4 -3 -7 -68 -7 -144 0 -119 2 -138 15 -133 10 4 15 20
15 50 0 42 1 44 21 33 12 -6 36 -8 55 -4 87 16 87 184 0 200 -19 4 -43 2 -53
-4 -13 -6 -23 -7 -30 0 -5 5 -12 6 -16 2z m115 -40 c28 -26 24 -93 -8 -124
-23 -22 -27 -23 -52 -8 -23 12 -27 22 -30 66 -2 36 2 55 13 67 21 21 53 20 77
-1z"/>
<path d="M3812 334 c-12 -8 -22 -22 -22 -30 0 -19 26 -18 34 2 8 21 75 15 90
-9 14 -22 -5 -37 -47 -37 -52 0 -87 -27 -87 -67 0 -46 61 -69 112 -42 14 8 23
8 31 0 26 -26 32 -10 29 79 -3 79 -6 92 -25 105 -28 19 -87 19 -115 -1z m108
-111 c0 -24 -40 -63 -66 -63 -56 0 -54 59 2 71 51 11 64 10 64 -8z"/>
<path d="M4462 340 c-31 -13 -56 -74 -48 -120 11 -74 96 -105 153 -56 25 21
28 31 28 81 0 50 -3 60 -28 81 -29 25 -65 30 -105 14z m92 -42 c24 -34 20 -85
-9 -113 -29 -30 -45 -31 -76 -6 -32 26 -34 105 -5 127 30 21 72 18 90 -8z"/>
<path d="M4665 325 c-21 -20 -25 -34 -25 -80 0 -46 4 -60 25 -80 41 -42 124
-27 138 25 7 26 -19 27 -33 1 -24 -46 -92 -29 -103 25 -6 32 8 84 25 96 21 13
55 9 68 -7 14 -17 40 -20 40 -5 0 6 -9 19 -20 30 -29 29 -84 27 -115 -5z"/>
<path d="M4866 329 c-14 -11 -26 -25 -26 -30 0 -15 26 -10 40 7 9 10 26 14 49
12 28 -2 37 -8 39 -25 3 -17 -3 -24 -22 -28 -14 -3 -38 -8 -53 -11 -59 -12
-82 -64 -45 -97 21 -19 58 -22 99 -6 19 7 29 7 31 0 2 -6 10 -11 17 -11 11 0
13 17 8 88 -4 70 -9 90 -25 105 -27 23 -79 22 -112 -4z m104 -113 c0 -48 -79
-76 -100 -35 -19 34 5 51 83 58 12 1 17 -6 17 -23z"/>
<path d="M5786 329 c-14 -11 -26 -25 -26 -30 0 -15 26 -10 40 7 9 10 26 14 49
12 28 -2 37 -8 39 -25 3 -23 -4 -26 -70 -38 -36 -6 -68 -35 -68 -62 0 -42 75
-67 123 -42 16 9 22 9 25 0 2 -6 10 -11 19 -11 13 0 14 15 11 91 -2 76 -6 93
-22 105 -29 21 -89 17 -120 -7z m104 -114 c0 -32 -41 -60 -76 -51 -20 5 -25
12 -22 34 2 21 10 28 33 33 57 12 65 10 65 -16z"/>
<path d="M6032 334 c-12 -8 -22 -10 -22 -5 0 6 -7 11 -15 11 -13 0 -15 -22
-15 -135 0 -113 2 -135 15 -135 11 0 15 12 15 45 0 42 11 58 25 35 12 -19 65
-11 90 14 82 82 -1 235 -93 170z m78 -30 c8 -8 13 -36 13 -61 0 -36 -5 -50
-22 -65 -31 -24 -46 -23 -70 8 -41 52 -17 134 38 134 16 0 34 -7 41 -16z"/>
<path d="M6343 335 c-50 -35 -53 -138 -4 -176 44 -35 141 -12 141 33 0 15 -24
8 -47 -14 -19 -18 -28 -20 -50 -12 -27 9 -56 51 -47 66 3 4 39 8 80 8 44 0 74
4 74 10 0 6 -7 26 -15 45 -21 52 -87 71 -132 40z m95 -27 c7 -7 12 -20 12 -30
0 -15 -9 -18 -55 -18 -46 0 -55 3 -55 18 0 27 20 42 55 42 17 0 36 -5 43 -12z"/>
<path d="M6543 343 c-9 -3 -13 -33 -13 -104 0 -81 3 -99 15 -99 12 0 15 14 15
68 0 76 19 117 51 109 17 -5 34 15 22 27 -12 11 -41 6 -54 -10 -11 -14 -14
-14 -19 -1 -3 7 -11 12 -17 10z"/>
<path d="M1400 204 c-96 -13 -221 -33 -278 -44 -108 -22 -262 -67 -262 -77 0
-3 73 -3 162 1 175 8 345 34 433 67 55 20 145 67 145 75 0 5 10 6 -200 -22z"/>
</g>
</svg>
